<svg viewBox="0 0 4918 3906" fill="none" xmlns="http://www.w3.org/2000/svg">
<g id="monkey">
<g clip-path="url(#clip0)">
<path id="the-gift" fill-rule="evenodd" clip-rule="evenodd" d="M3354.38 669H3326.85V665.165L3341.26 649.398C3346.31 643.879 3348.67 640.896 3348.67 636.869C3348.67 632.267 3345.05 629.369 3340.32 629.369C3335.27 629.369 3332.05 632.672 3332.05 637.636H3327.02C3327.02 629.966 3332.84 624.767 3340.49 624.767C3348.16 624.767 3353.61 630.136 3353.61 636.869C3353.61 641.706 3351.4 645.456 3343.9 653.489L3334.1 663.972V664.312H3354.38V669ZM3355 712C3355 720.216 3348.39 726.889 3340.2 726.999L3235.77 1035.71C3239.26 1038.45 3241.5 1042.71 3241.5 1047.5C3241.5 1052.78 3238.77 1057.43 3234.64 1060.1L3315.59 1400.08C3323.13 1400.88 3329 1407.25 3329 1415C3329 1418.77 3327.61 1422.22 3325.3 1424.86L3491.4 1719.22C3492.25 1719.08 3493.11 1719 3494 1719C3502.28 1719 3509 1725.72 3509 1734C3509 1739.23 3506.32 1743.83 3502.27 1746.52L3567.94 2010.57C3575.55 2011.29 3581.5 2017.7 3581.5 2025.5C3581.5 2027.87 3580.95 2030.1 3579.98 2032.09L3822.16 2278.9C3824.09 2278 3826.23 2277.5 3828.5 2277.5C3836.78 2277.5 3843.5 2284.22 3843.5 2292.5C3843.5 2299.03 3839.33 2304.59 3833.5 2306.65V2545.35C3839.33 2547.41 3843.5 2552.97 3843.5 2559.5C3843.5 2566.09 3839.25 2571.69 3833.34 2573.7L3828.66 2995.91C3834.4 2998.01 3838.5 3003.53 3838.5 3010C3838.5 3018.28 3831.78 3025 3823.5 3025C3815.22 3025 3808.5 3018.28 3808.5 3010C3808.5 3003.41 3812.75 2997.81 3818.66 2995.8L3823.34 2573.59C3817.6 2571.49 3813.5 2565.97 3813.5 2559.5C3813.5 2552.97 3817.67 2547.41 3823.5 2545.35V2306.65C3817.67 2304.59 3813.5 2299.03 3813.5 2292.5C3813.5 2290.13 3814.05 2287.9 3815.02 2285.91L3572.84 2039.1C3570.91 2040 3568.77 2040.5 3566.5 2040.5C3558.22 2040.5 3551.5 2033.78 3551.5 2025.5C3551.5 2020.27 3554.18 2015.67 3558.23 2012.98L3492.56 1748.93C3484.95 1748.21 3479 1741.8 3479 1734C3479 1730.23 3480.39 1726.78 3482.7 1724.14L3316.6 1429.78C3315.75 1429.92 3314.89 1430 3314 1430C3305.72 1430 3299 1423.28 3299 1415C3299 1409.72 3301.73 1405.07 3305.86 1402.4L3224.91 1062.42C3217.37 1061.62 3211.5 1055.25 3211.5 1047.5C3211.5 1039.28 3218.11 1032.61 3226.3 1032.5L3330.73 723.795C3327.24 721.048 3325 716.786 3325 712C3325 703.716 3331.72 697 3340 697C3348.28 697 3355 703.716 3355 712Z" fill="#FF0000"/>
<path id="remember-me" fill-rule="evenodd" clip-rule="evenodd" d="M2440.63 315.364H2445.91V359H2440.63V320.903H2440.37L2429.72 327.977V322.608L2440.63 315.364ZM2457 400.5C2457 407.251 2452.54 412.96 2446.41 414.842L2443.58 482.574C2449.1 484.789 2453 490.19 2453 496.5C2453 502.837 2449.07 508.256 2443.51 510.454L2461.98 1014.18C2468.08 1016.08 2472.5 1021.78 2472.5 1028.5C2472.5 1034.31 2469.19 1039.36 2464.35 1041.85L2502.56 1323.81C2509.37 1325.22 2514.5 1331.26 2514.5 1338.5C2514.5 1343.77 2511.78 1348.41 2507.67 1351.08L2565.05 1589.58C2572.61 1590.36 2578.5 1596.74 2578.5 1604.5C2578.5 1610.78 2574.64 1616.16 2569.16 1618.4L2584.83 1951.63C2591 1953.49 2595.5 1959.22 2595.5 1966C2595.5 1971.64 2592.39 1976.55 2587.79 1979.11L2642.07 2299.22C2649.13 2300.44 2654.5 2306.59 2654.5 2314C2654.5 2320.32 2650.59 2325.73 2645.06 2327.94L2669.94 2957.17C2676.06 2959.06 2680.5 2964.76 2680.5 2971.5C2680.5 2978.03 2676.33 2983.59 2670.5 2985.65V3889.35C2676.33 3891.41 2680.5 3896.97 2680.5 3903.5C2680.5 3911.78 2673.78 3918.5 2665.5 3918.5C2657.22 3918.5 2650.5 3911.78 2650.5 3903.5C2650.5 3896.97 2654.67 3891.41 2660.5 3889.35V2985.65C2654.67 2983.59 2650.5 2978.03 2650.5 2971.5C2650.5 2965.18 2654.41 2959.77 2659.94 2957.56L2635.06 2328.33C2628.94 2326.44 2624.5 2320.74 2624.5 2314C2624.5 2308.36 2627.61 2303.45 2632.21 2300.89L2577.93 1980.78C2570.87 1979.56 2565.5 1973.41 2565.5 1966C2565.5 1959.72 2569.36 1954.34 2574.84 1952.1L2559.17 1618.87C2553 1617.01 2548.5 1611.28 2548.5 1604.5C2548.5 1599.23 2551.22 1594.59 2555.33 1591.92L2497.95 1353.42C2490.39 1352.64 2484.5 1346.26 2484.5 1338.5C2484.5 1332.69 2487.81 1327.64 2492.65 1325.15L2454.44 1043.19C2447.63 1041.78 2442.5 1035.74 2442.5 1028.5C2442.5 1022.16 2446.43 1016.74 2451.99 1014.55L2433.52 510.82C2427.42 508.915 2423 503.224 2423 496.5C2423 489.749 2427.46 484.04 2433.59 482.158L2436.42 414.426C2430.9 412.211 2427 406.811 2427 400.5C2427 392.216 2433.72 385.5 2442 385.5C2450.28 385.5 2457 392.216 2457 400.5Z" fill="#FF0000"/>
</g>
</g>
<defs>
<clipPath id="clip0">
<rect width="4918" height="3906" fill="white"/>
</clipPath>
</defs>
</svg>
